<svg width="632" height="632" viewBox="0 0 632 632" fill="none" xmlns="http://www.w3.org/2000/svg">
<path d="M208.8 95.748C208.8 95.748 113.027 144.551 65.2604 219.746C17.4938 294.942 21.2732 391.65 79.3161 463.42C137.359 535.19 248.3 525.824 341.192 571.328C434.083 616.832 536.568 607.453 580.492 511.086C624.416 414.718 558.182 378.656 546.806 267.159C535.43 155.662 434.905 -7.58401 208.8 95.748Z" fill="#1E79AE"/>
<path opacity="0.7" d="M208.8 95.748C208.8 95.748 113.027 144.551 65.2604 219.746C17.4938 294.942 21.2732 391.65 79.3161 463.42C137.359 535.19 248.3 525.824 341.192 571.328C434.083 616.832 536.568 607.453 580.492 511.086C624.416 414.718 558.182 378.656 546.806 267.159C535.43 155.662 434.905 -7.58401 208.8 95.748Z" fill="white"/>
<path d="M472.609 590.288C509.14 590.288 538.755 583.61 538.755 575.373C538.755 567.135 509.14 560.458 472.609 560.458C436.079 560.458 406.464 567.135 406.464 575.373C406.464 583.61 436.079 590.288 472.609 590.288Z" fill="#263238" stroke="#263238" stroke-linecap="round" stroke-linejoin="round"/>
<path d="M421.607 238.239C421.607 238.239 412.658 243.712 412.759 246.113C412.86 248.515 409.422 292.313 409.03 297.786C408.639 303.259 403.431 314.559 403.026 319.691C402.622 324.823 403.911 329.967 405.415 332.331C406.919 334.695 412.443 342.253 412.443 342.253L427.295 319.312C427.659 314.302 427.735 309.276 427.523 304.257C427.295 293.324 421.607 238.239 421.607 238.239Z" fill="white" stroke="#263238" stroke-linecap="round" stroke-linejoin="round"/>
<path d="M478.753 129.712C478.753 129.712 462.953 128.7 453.953 139.659C444.953 150.618 446.887 167.379 446.824 172.523C446.761 177.668 431.479 192.747 433.173 198.89C434.866 205.033 439.366 205.729 437.925 210.86C436.484 215.992 427.08 219.076 428.445 225.586C429.81 232.096 434.765 241.323 434.765 241.323L525.773 241.942C525.773 241.942 529.022 232.361 525.558 225.169C522.095 217.977 517.178 215.6 517.974 212.175C518.771 208.75 523.169 200.534 521.476 194.378C519.782 188.222 513.892 186.516 513.272 175.557C512.653 164.598 511.035 146.485 502.339 137.637C493.642 128.789 478.753 129.712 478.753 129.712Z" fill="#263238" stroke="#263238" stroke-linecap="round" stroke-linejoin="round"/>
<path d="M450.768 552.027C447.973 557.412 444.581 562.466 440.656 567.094C434.841 573.603 429.204 577.029 429.393 580.454C429.583 583.88 442.273 584.549 448.985 582.148C455.697 579.746 460.576 574.956 461.929 574.564C463.281 574.172 467.061 574.564 467.149 569.761C467.237 564.957 466.504 551.281 466.504 551.281L450.768 552.027Z" fill="white" stroke="#263238" stroke-linecap="round" stroke-linejoin="round"/>
<path d="M448.96 582.148C455.684 579.746 460.551 574.956 461.903 574.564C463.256 574.172 467.035 574.564 467.124 569.761C467.124 567.233 466.985 562.177 466.808 558.043C465.813 559.909 464.341 561.476 462.542 562.587C460.744 563.697 458.682 564.31 456.569 564.363C456.569 564.363 456.443 561.962 452.777 557.866C450.414 555.187 448.025 557.298 446.634 559.13L445.509 560.824L445.421 560.988C443.962 563.141 442.366 565.197 440.643 567.144C434.828 573.654 429.191 577.079 429.381 580.505C429.57 583.93 442.248 584.549 448.96 582.148Z" fill="white" stroke="#263238" stroke-linecap="round" stroke-linejoin="round"/>
<path d="M497.599 552.001C500.995 557.406 504.934 562.45 509.354 567.056C515.864 573.553 521.868 576.965 521.994 580.391C522.12 583.816 509.556 584.499 502.579 582.11C495.602 579.721 490.217 574.93 488.839 574.589C487.462 574.248 483.695 574.589 483.101 569.811C482.507 565.033 481.761 551.331 481.761 551.331L497.599 552.001Z" fill="white" stroke="#263238" stroke-linecap="round" stroke-linejoin="round"/>
<path d="M502.629 582.11C495.665 579.721 490.267 574.93 488.89 574.589C487.512 574.248 483.745 574.589 483.151 569.811C482.835 567.283 482.481 562.227 482.216 558.081C483.385 559.935 484.991 561.473 486.892 562.562C488.794 563.65 490.934 564.256 493.124 564.325C493.124 564.325 492.998 561.924 496.196 557.816C498.281 555.149 500.898 557.247 502.516 559.08C502.933 559.636 503.363 560.192 503.78 560.774L503.893 560.938C505.592 563.087 507.407 565.142 509.329 567.094C515.838 573.591 521.842 577.003 521.969 580.429C522.095 583.854 509.607 584.499 502.629 582.11Z" fill="white" stroke="#263238" stroke-linecap="round" stroke-linejoin="round"/>
<path d="M423.276 371.363C423.276 371.363 425.387 442.539 428.193 456.569C430.999 470.6 443.525 551.016 443.525 551.016C447.354 552.635 451.477 553.445 455.634 553.392H469.323L470.587 493.504L471.055 406.578L477.918 553.72C477.918 553.72 496.777 554.39 498.812 554.049C500.847 553.708 502.541 553.367 502.541 553.367L514.663 460.273L521.602 398.337L521.981 373.702C521.981 373.702 464.04 371.692 447.203 370.327C430.367 368.962 423.44 368.62 423.44 368.62L423.276 371.363Z" fill="#1E79AE" stroke="#263238" stroke-linecap="round" stroke-linejoin="round"/>
<path d="M501.517 497.03C501.365 498.218 501.214 499.318 501.037 500.329" stroke="#263238" stroke-linecap="round" stroke-linejoin="round"/>
<path d="M503.072 411.344C503.072 411.344 504.247 462.055 502.187 489.585" stroke="#263238" stroke-linecap="round" stroke-linejoin="round"/>
<path d="M440.946 407.273C440.946 407.273 442.4 440.82 443.841 448.341" stroke="#263238" stroke-linecap="round" stroke-linejoin="round"/>
<path d="M494.957 385.899V411.508C498.238 412.391 501.593 412.971 504.981 413.239C510.176 413.581 519.871 413.239 519.871 413.239L520.566 403.545L494.957 385.899Z" fill="#263238" stroke="#263238" stroke-linecap="round" stroke-linejoin="round"/>
<path d="M424.35 405.618C424.35 405.618 437.508 409.776 443.045 410.117C448.581 410.459 453.763 411.154 453.763 411.154L453.081 404.24L423.655 401.472L424.35 405.618Z" fill="#263238" stroke="#263238" stroke-linecap="round" stroke-linejoin="round"/>
<path d="M464.292 211.176L453.965 222.818L425.323 243.712L431.428 370.352C431.428 370.352 454.256 376.495 473.848 378.201C493.44 379.908 518.632 375.421 518.632 375.421L514.928 242.701C514.928 242.701 503.78 226.269 498.066 221.832C492.353 217.395 489.737 213.287 482.165 212.605C474.594 211.922 464.292 211.176 464.292 211.176Z" fill="#1E79AE" stroke="#263238" stroke-linecap="round" stroke-linejoin="round"/>
<path d="M452.31 217.408L421.607 238.302L426.423 315.292L424.792 323.028L411.887 337.892L417.385 364.007L414.933 400.852C414.933 400.852 427.131 404.96 435.397 405.971C441.552 406.631 447.737 406.973 453.928 406.995L454.989 356.688C454.989 356.688 459.072 273.176 459.552 269.472C460.033 265.769 464.292 211.328 464.292 211.328L452.31 217.408Z" fill="white" stroke="#263238" stroke-linecap="round" stroke-linejoin="round"/>
<path d="M452.803 220.555L437.938 257.831L453.978 264.492L438.835 267.248L452.246 319.792" stroke="#263238" stroke-linecap="round" stroke-linejoin="round"/>
<path d="M461.714 201.254C461.714 201.254 467.048 236.836 471.244 245.052C475.441 253.268 476.629 255.998 476.629 255.998C476.629 255.998 485.755 228.266 487.588 224.158C489.421 220.05 491.38 205.337 491.38 205.337C491.38 205.337 473.191 211.164 461.714 201.254Z" fill="white" stroke="#263238" stroke-linecap="round" stroke-linejoin="round"/>
<path d="M461.714 201.254C461.714 201.254 462.194 204.49 462.978 209.23C465.645 211.265 472.711 216.296 477.931 216.561C481.913 216.763 486.969 214.185 490.331 212.124C490.938 208.396 491.355 205.337 491.355 205.337C491.355 205.337 473.191 211.164 461.714 201.254Z" fill="#263238" stroke="#263238" stroke-linecap="round" stroke-linejoin="round"/>
<path d="M454.471 176.657C454.471 176.657 450.831 171.474 448.379 176.657C445.926 181.839 452.171 189.512 453.915 190.561C458.87 193.506 457.555 188.033 457.555 188.033L454.471 176.657Z" fill="white" stroke="#263238" stroke-linecap="round" stroke-linejoin="round"/>
<path d="M499.684 178.894C499.684 178.894 502.756 173.535 505.764 178.591C508.772 183.647 503.35 191.597 501.732 192.722C497.106 195.92 497.839 190.434 497.839 190.434L499.684 178.894Z" fill="white" stroke="#263238" stroke-linecap="round" stroke-linejoin="round"/>
<path d="M453.612 172.081C453.612 172.081 466.808 168.997 473.456 165.066C477.529 162.606 481.08 159.373 483.91 155.548C483.91 155.548 489.623 166.342 494.654 170.716C499.684 175.089 500.733 175.342 500.733 175.342C500.733 175.342 498.319 194.239 495.589 200.812C492.859 207.384 483.948 213.78 475.63 211.935C470.903 210.898 462.712 207.486 460.336 201.734C457.96 195.983 453.612 172.081 453.612 172.081Z" fill="white" stroke="#263238" stroke-linecap="round" stroke-linejoin="round"/>
<path d="M487.285 186.604C483.189 186.705 469.475 186.731 462.396 182.458C459.559 180.807 456.903 178.862 454.471 176.657C454.724 177.921 455.027 179.501 455.356 181.144L456.898 182.269L460.766 196.881L458.958 197.273C459.34 198.766 459.8 200.239 460.336 201.684C462.712 207.435 470.903 210.848 475.631 211.884C483.935 213.717 492.821 207.359 495.576 200.799C494.926 199.525 494.734 198.065 495.033 196.666C495.829 192.532 496.815 185.29 496.815 185.29L499.634 182.762C499.786 181.839 499.912 180.954 500.038 180.145C496.626 182.509 490.23 186.529 487.285 186.604Z" fill="#1E79AE" stroke="#263238" stroke-linecap="round" stroke-linejoin="round"/>
<path d="M472.23 180.499C472.23 180.499 467.819 175.14 462.03 175.633" stroke="#263238" stroke-linecap="round" stroke-linejoin="round"/>
<path d="M483.594 181.561C485.001 180.081 486.75 178.969 488.687 178.321C490.624 177.673 492.69 177.509 494.704 177.845" stroke="#263238" stroke-linecap="round" stroke-linejoin="round"/>
<path d="M459.489 172.953C459.489 172.953 465.809 170.425 471.409 171.613" stroke="#263238" stroke-linecap="round" stroke-linejoin="round"/>
<path d="M484.112 172.991C485.777 172.14 487.663 171.822 489.515 172.08C491.367 172.338 493.095 173.159 494.464 174.432" stroke="#263238" stroke-linecap="round" stroke-linejoin="round"/>
<path d="M467.983 178.742C468.012 178.936 468.002 179.134 467.954 179.325C467.906 179.515 467.821 179.694 467.703 179.852C467.586 180.009 467.438 180.142 467.269 180.242C467.101 180.342 466.914 180.408 466.719 180.436C466.324 180.391 465.96 180.198 465.702 179.895C465.444 179.593 465.31 179.203 465.329 178.805C465.299 178.611 465.307 178.412 465.355 178.221C465.402 178.03 465.487 177.851 465.605 177.693C465.723 177.535 465.871 177.402 466.04 177.303C466.21 177.203 466.398 177.138 466.593 177.112C466.987 177.159 467.349 177.353 467.607 177.655C467.864 177.957 467.999 178.345 467.983 178.742Z" fill="#263238"/>
<path d="M490.874 180.385C490.908 180.58 490.902 180.78 490.856 180.973C490.81 181.165 490.726 181.346 490.607 181.505C490.489 181.663 490.339 181.796 490.168 181.895C489.997 181.994 489.807 182.056 489.61 182.079C489.216 182.038 488.852 181.847 488.594 181.546C488.335 181.246 488.202 180.857 488.22 180.461C488.186 180.266 488.192 180.067 488.238 179.874C488.284 179.682 488.369 179.501 488.487 179.342C488.605 179.183 488.755 179.051 488.926 178.952C489.098 178.853 489.287 178.79 489.484 178.768C489.878 178.809 490.242 179 490.5 179.3C490.759 179.601 490.893 179.989 490.874 180.385Z" fill="#263238"/>
<path d="M524.914 230.983C524.914 230.983 532.283 234.396 535.026 239.831C537.769 245.267 559.699 304.156 559.598 308.606C559.497 313.055 552.241 318.187 545.441 318.882C538.641 319.577 528.731 307.253 527.252 305.205C525.773 303.158 525.508 279.192 525.508 279.192L524.914 230.983Z" fill="white" stroke="#263238" stroke-linecap="round" stroke-linejoin="round"/>
<path d="M490.179 215.259L493.769 332.988L495.033 407.248C501.915 408.941 508.967 409.852 516.053 409.966C521.964 410.09 527.841 409.041 533.345 406.882C533.345 406.882 531.196 360.682 530.817 353.149C530.438 345.616 527.935 331.244 527.935 331.244L524.952 230.983C524.952 230.983 497.182 217.989 490.179 215.259Z" fill="white" stroke="#263238" stroke-linecap="round" stroke-linejoin="round"/>
<path d="M498.066 221.756L510.795 263.279L499.191 266.426L510.479 271.899L496.398 316.632" fill="white"/>
<path d="M498.066 221.756L510.795 263.279L499.191 266.426L510.479 271.899L496.398 316.632" stroke="#263238" stroke-linecap="round" stroke-linejoin="round"/>
<path d="M506.94 259.739L491.152 335.377C491.152 335.377 501.947 338.79 509.834 339.169C517.722 339.548 534.154 339.498 534.154 339.498L550.586 268.992C550.586 268.992 518.24 265.895 506.94 259.739Z" fill="#263238" stroke="#263238" stroke-linecap="round" stroke-linejoin="round"/>
<path d="M512.438 330.233L512.956 306.596L525.483 309.238C525.483 309.238 517.204 327.477 512.438 330.233Z" fill="white" stroke="#263238" stroke-linecap="round" stroke-linejoin="round"/>
<path d="M522.032 298.051C522.032 298.051 518.695 293.273 517.62 292.237C516.546 291.2 511.237 288.141 510.213 288.141C509.19 288.141 503.691 287.8 502.629 287.8C501.568 287.8 500.367 290.202 501.454 291.226C502.541 292.249 506.32 292.591 506.32 292.591L508.911 296.383L497.219 295.359C497.219 295.359 495.273 297.419 495.715 299.151C496.046 300.324 496.469 301.469 496.979 302.576C496.935 305.089 497.066 307.602 497.371 310.097C497.826 312.157 499.899 312.84 502.743 314.546C505.587 316.253 515.105 315.229 515.105 315.229H519.504L522.032 298.051Z" fill="white" stroke="#263238" stroke-linecap="round" stroke-linejoin="round"/>
<path d="M550.535 300.428L520.199 296.345C520.199 296.345 517.836 315.861 515.447 322.358C513.058 328.855 512.438 330.233 512.438 330.233C512.438 330.233 544.228 329.525 551.723 328.842C559.219 328.16 563.428 323.698 563.099 317.542C562.771 311.386 559.017 305.218 559.017 305.218" fill="white"/>
<path d="M550.535 300.428L520.199 296.345C520.199 296.345 517.836 315.861 515.447 322.358C513.058 328.855 512.438 330.233 512.438 330.233C512.438 330.233 544.228 329.525 551.723 328.842C559.219 328.16 563.428 323.698 563.099 317.542C562.771 311.386 559.017 305.218 559.017 305.218" stroke="#263238" stroke-linecap="round" stroke-linejoin="round"/>
<path d="M424.034 321.739C424.034 321.739 431.112 326.175 432.882 327.553C434.652 328.931 434.803 337.817 435.928 339.523C437.053 341.229 435.726 342.266 433.678 342.266C431.631 342.266 428.534 335.769 428.534 335.769L428.407 333.367L413.947 338.171L410.155 331.674C410.155 331.674 414.453 321.739 424.034 321.739Z" fill="white" stroke="#263238" stroke-linecap="round" stroke-linejoin="round"/>
<path d="M318.692 590.288C355.223 590.288 384.837 583.61 384.837 575.373C384.837 567.135 355.223 560.458 318.692 560.458C282.161 560.458 252.547 567.135 252.547 575.373C252.547 583.61 282.161 590.288 318.692 590.288Z" fill="#263238" stroke="#263238" stroke-linecap="round" stroke-linejoin="round"/>
<path d="M370.352 220.935C370.352 220.935 379.023 264.454 380.565 272.506C382.107 280.557 384.938 299.694 388.149 308.087C391.36 316.48 390.31 327.224 388.705 330.245C387.095 332.871 385.246 335.342 383.181 337.627L372.412 323.584C372.412 323.584 366.004 254.772 365.764 245.026C365.523 235.281 370.352 220.935 370.352 220.935Z" fill="white" stroke="#263238" stroke-linecap="round" stroke-linejoin="round"/>
<path d="M376.065 321.865C376.065 321.865 382.891 326.125 384.092 327.932C385.292 329.74 386.152 332.04 385.217 333.999C384.281 335.959 379.187 341.874 377.898 343.024C376.609 344.175 375.522 339.586 375.37 335.643C375.218 331.699 376.065 321.865 376.065 321.865Z" fill="white" stroke="#263238" stroke-linecap="round" stroke-linejoin="round"/>
<path d="M339.359 560.508C339.359 560.508 360.758 570.911 362.111 572.933C363.463 574.956 358.584 577.648 345.83 577.648C333.077 577.648 332.697 575.967 327.629 574.627C322.56 573.287 312.461 574.286 311.096 571.265C309.73 568.244 312.107 557.841 312.107 557.841L339.359 560.508Z" fill="white" stroke="#263238" stroke-linecap="round" stroke-linejoin="round"/>
<path d="M310.944 565.88C310.944 565.88 328.64 576.624 327.085 580.315C325.53 584.006 312.739 584.006 306.002 582.995C299.264 581.984 284.943 572.883 284.185 569.571C283.427 566.259 285.323 561.178 295.7 560.179C306.077 559.181 310.944 565.88 310.944 565.88Z" fill="white" stroke="#263238" stroke-linecap="round" stroke-linejoin="round"/>
<path d="M364.664 390.323C364.664 390.323 354.552 468.198 352.795 479.612C351.038 491.026 345.464 509.152 342.455 522.917C340.75 531.012 339.485 539.194 338.663 547.426C338.356 549.767 338.412 552.142 338.828 554.466C339.257 557.828 339.321 560.508 339.321 560.508C334.82 561.637 330.239 562.423 325.619 562.859C319.918 563.2 312.195 563.201 312.195 563.201L309.667 541.384C309.667 541.384 311.551 509.152 312.663 499.76C313.775 490.369 314.963 416.513 314.913 414.491C314.862 412.469 314.42 394.684 314.42 394.684L348.864 390.993C348.864 390.993 353.566 377.569 360.632 378.239C367.697 378.909 364.664 390.323 364.664 390.323Z" fill="white" stroke="#263238" stroke-linecap="round" stroke-linejoin="round"/>
<path d="M360.682 378.239C353.617 377.569 348.915 390.993 348.915 390.993L314.433 394.684C314.433 394.684 314.546 399.411 314.66 404.265C318.338 404.594 321.739 404.783 324.646 404.783C335.693 404.765 346.732 404.145 357.712 402.925L359.191 387.454L361.504 403.216L363.097 402.698C364.083 395.19 364.715 390.298 364.715 390.298C364.715 390.298 367.748 378.909 360.682 378.239Z" fill="#263238" stroke="#263238" stroke-linecap="round" stroke-linejoin="round"/>
<path d="M278.459 392.674C278.459 392.674 278.459 393.155 278.535 394.027C279.003 403.203 281.783 456.38 282.63 466.188C283.578 476.932 278.838 488.675 279.078 498.408C279.318 508.141 281.606 560.849 281.606 560.849L284.134 569.571C284.134 569.571 290.075 565.551 295.776 565.551C301.476 565.551 310.944 565.88 310.944 565.88C310.944 565.88 311.437 558.827 311.386 556.489C311.336 554.15 311.121 545.745 311.121 545.745C311.121 545.745 320.765 501.77 321.346 498.079C321.928 494.388 329.411 430.607 329.36 428.559C329.31 426.511 330.94 398.008 330.94 398.008L278.459 392.674Z" fill="white" stroke="#263238" stroke-linecap="round" stroke-linejoin="round"/>
<path d="M330.586 404.72C330.801 400.827 330.953 398.046 330.953 398.046L278.459 392.674C278.459 392.674 278.459 393.155 278.535 394.027C278.535 395.139 278.674 396.896 278.8 399.083C291.074 401.282 312.372 404.745 324.646 404.745C326.668 404.783 328.64 404.758 330.586 404.72Z" fill="#263238" stroke="#263238" stroke-linecap="round" stroke-linejoin="round"/>
<path d="M317.137 186.566C317.137 186.566 311.588 187.502 309.478 189.979C307.362 192.389 305.459 194.977 303.79 197.715C303.499 198.65 270.862 218.457 270.862 218.457L273.213 312.903C273.213 312.903 274.187 327.452 272.455 332.407C269.53 342.149 268.11 352.281 268.246 362.452C268.549 374.523 269.333 394.052 269.333 394.052C269.333 394.052 306.684 401.484 324.646 401.484C335.694 401.458 346.732 400.829 357.712 399.601L359.191 384.117L361.441 399.917L369.113 397.389L375.433 350.621C375.433 350.621 379.832 340.711 379.781 338.537C379.731 336.363 380.894 333.582 379.617 331.724C378.34 329.866 376.065 326.15 376.065 326.15C376.065 326.15 370.352 223.728 370.352 220.935C370.352 218.141 353.452 201.747 352.201 201.128C350.949 200.508 343.239 189.044 333.241 185.96C323.243 182.875 317.137 186.566 317.137 186.566Z" fill="white" stroke="#263238" stroke-linecap="round" stroke-linejoin="round"/>
<path d="M306.962 200.812L303.221 234.826L318.591 241.968L314.749 253.508L353.187 321.056" stroke="#263238" stroke-linecap="round" stroke-linejoin="round"/>
<path d="M349.9 204.629L361.428 231.54L356.486 238.125L364.727 249.653L361.428 323.799" stroke="#263238" stroke-linecap="round" stroke-linejoin="round"/>
<path d="M315.709 191.218C315.99 197.854 317.193 204.418 319.286 210.721C322.611 220.012 344.642 284.109 344.642 284.109L358.887 334.265C358.887 334.265 357.004 283.174 356.954 281.013C356.903 278.851 346.159 207.928 346.159 207.928C346.159 207.928 344.326 196.476 341.432 192.141C338.537 187.805 319.135 179.753 315.709 191.218Z" fill="#1E79AE" stroke="#263238" stroke-linecap="round" stroke-linejoin="round"/>
<path d="M314.344 186.263C314.344 186.263 305.382 187.186 306.962 200.812C308.542 214.438 310.628 223.728 310.628 223.728" stroke="#263238" stroke-width="2" stroke-linecap="round" stroke-linejoin="round"/>
<path d="M309.528 241.689C309.528 241.689 313.32 257.477 315.912 261.812C318.503 266.148 326.34 270.483 331.914 270.483" stroke="#263238" stroke-linecap="round" stroke-linejoin="round"/>
<path d="M321.511 237.973C321.511 237.973 325.682 256.238 326.377 259.651C327.073 263.064 324.772 269.548 320.904 276.083" stroke="#263238" stroke-linecap="round" stroke-linejoin="round"/>
<path d="M319.792 278.244C319.394 278.025 319.099 277.658 318.971 277.222C318.843 276.786 318.893 276.318 319.109 275.919L319.552 275.11C319.661 274.916 319.807 274.747 319.982 274.611C320.157 274.474 320.358 274.375 320.572 274.317C320.786 274.259 321.01 274.245 321.23 274.275C321.449 274.304 321.661 274.378 321.852 274.49C322.25 274.709 322.545 275.076 322.676 275.511C322.806 275.946 322.76 276.415 322.547 276.816L322.105 277.612C321.996 277.807 321.849 277.978 321.674 278.116C321.498 278.253 321.296 278.354 321.081 278.413C320.866 278.472 320.641 278.487 320.419 278.458C320.198 278.429 319.985 278.357 319.792 278.244Z" fill="#263238"/>
<path d="M333.986 270.825C333.987 271.047 333.942 271.268 333.855 271.473C333.768 271.678 333.64 271.864 333.479 272.018C333.319 272.173 333.129 272.294 332.921 272.373C332.712 272.452 332.49 272.489 332.267 272.48H331.345C330.89 272.471 330.457 272.282 330.14 271.956C329.823 271.629 329.648 271.191 329.651 270.736C329.649 270.514 329.692 270.294 329.778 270.088C329.864 269.883 329.99 269.698 330.15 269.543C330.309 269.388 330.499 269.267 330.706 269.188C330.914 269.108 331.135 269.072 331.357 269.08H332.28C332.735 269.093 333.167 269.283 333.485 269.608C333.804 269.933 333.983 270.369 333.986 270.825Z" fill="#263238"/>
<path d="M309.553 242.928L307.43 229.467C307.193 228.079 307.493 226.652 308.271 225.478C309.048 224.304 310.243 223.47 311.614 223.147C313.09 222.811 314.64 223.06 315.936 223.843C317.232 224.625 318.175 225.88 318.566 227.343L322.193 240.741" stroke="#263238" stroke-width="2" stroke-linecap="round" stroke-linejoin="round"/>
<path d="M359.518 252.026C362.56 251.721 364.742 248.631 364.391 245.123C364.039 241.615 361.288 239.018 358.246 239.323C355.203 239.628 353.022 242.719 353.373 246.226C353.724 249.734 356.476 252.331 359.518 252.026Z" fill="white" stroke="#263238" stroke-linecap="round" stroke-linejoin="round"/>
<path d="M343.972 191.938C343.972 191.938 356.144 209.066 360.025 243.977" stroke="#263238" stroke-width="2" stroke-linecap="round" stroke-linejoin="round"/>
<path d="M360.348 248.019C362.009 247.865 363.21 246.167 363.03 244.228C362.85 242.289 361.357 240.842 359.695 240.996C358.034 241.151 356.834 242.848 357.014 244.787C357.194 246.727 358.687 248.174 360.348 248.019Z" fill="white" stroke="#263238" stroke-linecap="round" stroke-linejoin="round"/>
<path d="M378.138 324.532C377.391 326.846 376.779 329.201 376.305 331.585C376.305 332.596 376.065 335.617 373.701 334.935C371.338 334.252 372.046 322.181 372.349 320.841C372.652 319.501 378.403 323.837 378.403 323.837" fill="white"/>
<path d="M378.138 324.532C377.391 326.846 376.779 329.201 376.305 331.585C376.305 332.596 376.065 335.617 373.701 334.935C371.338 334.252 372.046 322.181 372.349 320.841C372.652 319.501 378.403 323.837 378.403 323.837" stroke="#263238" stroke-linecap="round" stroke-linejoin="round"/>
<path d="M301.413 313.839C303.516 314.996 305.865 315.633 308.264 315.697C311.98 315.697 318.768 314.433 321.258 315.077C323.748 315.722 330.106 323.736 330.106 323.736C330.106 323.736 332.002 325.594 331.105 326.529C330.207 327.464 328.374 329.057 327.11 328.071C325.846 327.085 319.526 321.878 319.526 321.878L303.587 328.387L297.04 324.974L301.413 313.839Z" fill="white" stroke="#263238" stroke-linecap="round" stroke-linejoin="round"/>
<path d="M277.005 216.296C277.005 216.296 266.502 217.56 264.719 220.315C262.937 223.071 234.156 286.271 234.219 289.064C234.282 291.858 291.769 337.096 291.769 337.096L304.181 313.472L273.125 284.678L286.599 253.407" fill="white"/>
<path d="M277.005 216.296C277.005 216.296 266.502 217.56 264.719 220.315C262.937 223.071 234.156 286.271 234.219 289.064C234.282 291.858 291.769 337.096 291.769 337.096L304.181 313.472L273.125 284.678L286.599 253.407" stroke="#263238" stroke-linecap="round" stroke-linejoin="round"/>
<path d="M296.383 348.51L326.744 349.129L326.592 330.245" stroke="#263238" stroke-linecap="round" stroke-linejoin="round"/>
<path d="M303.625 328.387L295.599 331.383" stroke="#263238" stroke-linecap="round" stroke-linejoin="round"/>
<path d="M312.777 172.941C312.777 172.941 316.227 199.889 318.503 203.909C320.778 207.928 336.957 224.031 336.957 224.031C336.957 224.031 342.013 205.463 342.582 201.128C343.151 196.792 343.593 179.45 343.593 179.45L312.713 170.779L312.777 172.941Z" fill="white" stroke="#263238" stroke-linecap="round" stroke-linejoin="round"/>
<path d="M312.777 172.941C312.777 172.941 313.181 176.1 313.8 180.411C316.221 182.664 318.986 184.516 321.991 185.897C325.973 187.653 336.59 188.639 343.302 187.856C343.479 183.318 343.593 179.45 343.593 179.45L312.713 170.779L312.777 172.941Z" fill="#263238" stroke="#263238" stroke-linecap="round" stroke-linejoin="round"/>
<path d="M303.827 149.417C303.827 149.417 299.694 145.082 297.647 150.024C295.599 154.966 300.175 162.411 302.614 162.727C304.062 162.916 305.532 162.809 306.937 162.411C306.937 162.411 308.669 169.54 310.261 171.702C313.396 175.665 317.412 178.842 321.991 180.98C327.629 183.508 346.5 184.405 348.889 180.98C351.278 177.554 351.139 159.302 351.101 157.76C351.063 156.218 350.798 134.148 350.798 134.148C350.798 134.148 352.491 126.488 350.191 121.218C347.89 115.947 324.797 108.578 318.995 111.624C313.194 114.67 306.507 119.979 306.052 126.792C305.597 133.605 305.875 144.753 305.875 144.753L303.827 149.417Z" fill="white" stroke="#263238" stroke-linecap="round" stroke-linejoin="round"/>
<path d="M337.956 139.811C337.956 139.811 341.811 157.507 340.926 159.631C340.041 161.754 337.273 161.792 333.81 159.934C330.346 158.076 332.154 155.598 332.154 155.598" stroke="#263238" stroke-linecap="round" stroke-linejoin="round"/>
<path d="M324.532 160.25C324.532 160.25 326.2 164.889 329.297 165.205C332.394 165.521 340.168 166.128 340.168 166.128" stroke="#263238" stroke-linecap="round" stroke-linejoin="round"/>
<path d="M313.472 140.43L313.965 147.863C313.965 147.863 316.796 149.417 323.293 149.417C329.79 149.417 331.926 147.863 331.926 147.863L331.749 140.43C331.749 140.43 322.32 134.856 313.472 140.43Z" stroke="#263238" stroke-linecap="round" stroke-linejoin="round"/>
<path d="M337.981 140.43L340.332 148.179C340.332 148.179 341.293 149.443 347.802 149.443C354.312 149.443 356.448 147.888 356.448 147.888L356.258 140.456C356.258 140.456 346.816 134.856 337.981 140.43Z" stroke="#263238" stroke-linecap="round" stroke-linejoin="round"/>
<path d="M331.787 140.43H337.981" stroke="#263238" stroke-linecap="round" stroke-linejoin="round"/>
<path d="M313.51 140.43L301.3 147.559" stroke="#263238" stroke-linecap="round" stroke-linejoin="round"/>
<path d="M316.518 136.714C316.518 136.714 319.83 132.998 327.338 136.095" stroke="#263238" stroke-linecap="round" stroke-linejoin="round"/>
<path d="M339.118 136.714C340.233 135.82 341.578 135.258 342.999 135.095C344.419 134.932 345.856 135.173 347.145 135.792" stroke="#263238" stroke-linecap="round" stroke-linejoin="round"/>
<path d="M324.431 143.843C324.431 145.208 323.938 146.371 323.255 146.371C322.573 146.371 321.991 145.259 321.991 143.843C321.991 142.428 322.484 141.315 323.179 141.315C323.875 141.315 324.405 142.465 324.431 143.843Z" fill="#263238"/>
<path d="M344.25 143.527C344.25 144.892 343.757 146.055 343.075 146.055C342.392 146.055 341.811 144.943 341.811 143.527C341.811 142.112 342.304 140.999 342.986 140.999C343.669 140.999 344.212 142.162 344.25 143.527Z" fill="#263238"/>
<path d="M323.04 114.885C323.04 114.885 326.023 121.47 322.32 123.872C321.177 124.533 319.88 124.882 318.559 124.882C317.239 124.882 315.942 124.533 314.799 123.872C315.784 125.232 316.334 126.858 316.376 128.537C316.419 130.215 315.953 131.868 315.039 133.276C313.224 136.301 311.106 139.134 308.719 141.732C308.719 141.732 309.389 149.733 307.999 150.669C306.608 151.604 302.816 150.201 302.753 147.85C302.69 145.499 301.173 140.797 301.11 138.446C301.047 136.095 299.96 129.977 299.96 129.977C299.96 129.977 290.454 125.743 295.498 120.573C300.541 115.403 311.247 111.169 311.247 111.169C311.247 111.169 311.487 101.765 317.997 98.9459C324.507 96.1272 338.512 91.8928 338.625 96.5949C338.804 99.0148 338.369 101.441 337.361 103.648C337.361 103.648 349.104 103.18 357.295 111.232C365.485 119.284 365.207 126.754 360.973 126.754C356.739 126.754 355.361 127.689 355.361 127.689C355.361 127.689 363.463 132.391 359.292 134.742C355.121 137.093 350.823 134.275 350.823 134.275C350.823 134.275 352.618 130.988 347.334 126.691C342.051 122.393 323.04 114.885 323.04 114.885Z" fill="#263238" stroke="#263238" stroke-linecap="round" stroke-linejoin="round"/>
<path d="M162.651 590.288C199.182 590.288 228.797 583.61 228.797 575.373C228.797 567.135 199.182 560.458 162.651 560.458C126.121 560.458 96.5063 567.135 96.5063 575.373C96.5063 583.61 126.121 590.288 162.651 590.288Z" fill="#263238" stroke="#263238" stroke-linecap="round" stroke-linejoin="round"/>
<path d="M206.209 266.868V278.952L223.779 287.004C223.779 287.004 225.611 278.952 224.145 264.669L206.209 266.868Z" fill="#999999" stroke="#263238" stroke-linecap="round" stroke-linejoin="round"/>
<path d="M119.006 556.843C114.984 560.295 111.185 563.997 107.63 567.928C102.574 573.628 101.588 579.304 106.29 582.021C110.992 584.739 118.374 584.031 126.425 579C134.477 573.97 134.148 571.947 138.85 570.279C143.552 568.61 146.573 565.223 146.573 559.863C146.573 554.504 129.446 553.822 125.755 553.543C122.064 553.265 119.006 556.843 119.006 556.843Z" fill="white" stroke="#263238" stroke-linecap="round" stroke-linejoin="round"/>
<path d="M146.535 559.864C146.535 559.864 138.951 563.226 135.273 566.285C131.595 569.344 124.264 580.353 115.694 580.353C111.33 580.357 107.038 579.238 103.231 577.105C103.236 578.122 103.521 579.118 104.054 579.985C104.586 580.852 105.347 581.557 106.252 582.021C110.954 584.701 118.336 584.031 126.387 579.001C134.439 573.97 134.11 571.947 138.812 570.279C143.514 568.61 146.535 565.236 146.535 559.864Z" stroke="#263238" stroke-linecap="round" stroke-linejoin="round"/>
<path d="M204.186 556.843C208.208 560.295 212.008 563.997 215.562 567.928C220.618 573.628 221.604 579.304 216.902 582.021C212.2 584.739 204.818 584.031 196.767 579C188.715 573.97 189.044 571.947 184.342 570.279C179.64 568.61 176.619 565.223 176.619 559.863C176.619 554.504 193.746 553.822 197.437 553.543C201.128 553.265 204.186 556.843 204.186 556.843Z" fill="white" stroke="#263238" stroke-linecap="round" stroke-linejoin="round"/>
<path d="M176.656 559.864C176.656 559.864 184.24 563.226 187.919 566.285C191.597 569.344 198.928 580.353 207.498 580.353C211.862 580.357 216.154 579.238 219.961 577.105C219.956 578.122 219.671 579.118 219.138 579.985C218.606 580.852 217.845 581.557 216.94 582.021C212.238 584.701 204.856 584.031 196.805 579.001C188.753 573.97 189.082 571.947 184.38 570.279C179.677 568.61 176.656 565.236 176.656 559.864Z" stroke="#263238" stroke-linecap="round" stroke-linejoin="round"/>
<path d="M109.273 366.181C109.273 366.181 111.282 441.705 112.294 452.79C113.305 463.875 116.288 489.042 116.288 490.432C116.288 491.822 117.956 547.502 117.956 547.502L114.935 552.558L115.947 559.611L129.37 562.29C136.082 563.63 144.816 565.653 146.156 564.313C147.496 562.973 147.837 560.281 148.507 556.59C149.177 552.899 150.517 546.174 149.177 540.815C147.837 535.456 150.858 478.373 151.2 477.034C151.541 475.694 159.264 420.558 159.264 420.558C159.264 420.558 164.32 465.885 167.986 479.637C171.651 493.39 170.337 513.879 171.676 521.931C173.016 529.983 175.709 557.184 176.05 559.194C176.391 561.203 177.048 564.25 177.048 564.25C177.048 564.25 193.834 561.899 196.855 560.546C199.918 559.418 203.062 558.522 206.259 557.866C206.259 557.866 207.258 538.729 205.918 531.006C204.942 525.58 204.38 520.086 204.237 514.574C204.237 512.223 205.918 437.711 205.918 437.711L204.237 365.536C204.237 365.536 158.923 370.238 141.467 366.876C124.011 363.514 109.614 361.504 109.614 361.504L109.273 366.181Z" fill="#1E79AE" stroke="#263238" stroke-linecap="round" stroke-linejoin="round"/>
<path d="M141.492 366.851C124.036 363.501 109.614 361.504 109.614 361.504L109.273 366.193C109.273 366.193 109.386 370.529 109.576 377.253C117.577 379.491 133.832 383.422 149.544 383.422C166.153 383.422 192.608 378.366 204.515 375.952L204.262 365.524C204.262 365.524 158.948 370.213 141.492 366.851Z" fill="#263238" stroke="#263238" stroke-linecap="round" stroke-linejoin="round"/>
<path d="M199.801 536.935C200.015 539.248 200.154 540.575 200.154 540.575" stroke="#263238" stroke-linecap="round" stroke-linejoin="round"/>
<path d="M194.656 383.902C194.656 383.902 195.92 448.771 195.92 473.254C195.92 490.192 197.968 515.902 199.232 530.134" stroke="#263238" stroke-linecap="round" stroke-linejoin="round"/>
<path d="M126.716 380.237L129.775 450.616" stroke="#263238" stroke-linecap="round" stroke-linejoin="round"/>
<path d="M129.156 456.114V467.743" stroke="#263238" stroke-linecap="round" stroke-linejoin="round"/>
<path d="M145.069 188.892C143.416 188.901 141.79 189.303 140.324 190.066C138.857 190.829 137.594 191.93 136.638 193.278C134.548 196.036 132.222 198.608 129.686 200.963L99.6663 217.079L102.599 331.674L103.698 370.858C103.698 370.858 126.754 378.543 148.722 378.543C170.69 378.543 209.862 369.695 209.862 369.695C209.862 369.695 206.575 217.029 207.675 217.029C208.775 217.029 186.073 197.31 175.822 192.128C165.571 186.946 145.069 188.892 145.069 188.892Z" fill="#1E79AE" stroke="#263238" stroke-linecap="round" stroke-linejoin="round"/>
<path d="M136.512 202.746C136.512 202.746 148.141 224.17 153.045 233.966C157.949 243.762 167.101 257.856 167.101 257.856L182.408 216.852" stroke="#263238" stroke-linecap="round" stroke-linejoin="round"/>
<path d="M145.107 338.638L144.513 321.536L109.968 319.527C109.968 319.527 110.309 344.705 110.979 346.071" stroke="#263238" stroke-linecap="round" stroke-linejoin="round"/>
<path d="M145.524 350.747L145.36 345.944" stroke="#263238" stroke-linecap="round" stroke-linejoin="round"/>
<path d="M186.478 348.055L185.467 319.868C185.467 319.868 197.55 320.866 207.624 314.155" stroke="#263238" stroke-linecap="round" stroke-linejoin="round"/>
<path d="M134.679 252.699C135.741 256.048 138.977 258.02 141.897 257.085C144.816 256.15 146.295 252.674 145.221 249.324C144.146 245.974 140.923 244.003 138.003 244.938C135.084 245.873 133.605 249.349 134.679 252.699Z" stroke="#263238" stroke-linecap="round" stroke-linejoin="round"/>
<path d="M135.021 194.049C135.021 194.049 131.14 208.964 139.963 249.45" stroke="#263238" stroke-width="2" stroke-linecap="round" stroke-linejoin="round"/>
<path d="M142.68 250.841C142.42 251.365 142.015 251.804 141.513 252.105C141.011 252.406 140.433 252.557 139.848 252.539C139.263 252.522 138.695 252.336 138.212 252.006C137.729 251.675 137.351 251.213 137.123 250.674C136.895 250.134 136.826 249.541 136.925 248.964C137.024 248.387 137.287 247.851 137.682 247.419C138.076 246.986 138.587 246.677 139.153 246.526C139.718 246.375 140.315 246.39 140.873 246.569C141.676 246.899 142.316 247.533 142.654 248.333C142.993 249.133 143.002 250.034 142.68 250.841Z" stroke="#263238" stroke-linecap="round" stroke-linejoin="round"/>
<path d="M206.209 214.88C206.209 214.88 211.695 218.912 212.061 220.378C212.428 221.845 231.097 266.502 231.097 266.502L204.01 270.496L204.376 244.129" fill="#1E79AE"/>
<path d="M206.209 214.88C206.209 214.88 211.695 218.912 212.061 220.378C212.428 221.845 231.097 266.502 231.097 266.502L204.01 270.496L204.376 244.129" stroke="#263238" stroke-linecap="round" stroke-linejoin="round"/>
<path d="M103.332 215.613C103.332 215.613 97.1004 216.346 95.6342 221.099C94.168 225.852 83.563 274.187 83.563 274.187L122.368 270.496L118.702 234.244" fill="#1E79AE"/>
<path d="M103.332 215.613C103.332 215.613 97.1004 216.346 95.6342 221.099C94.168 225.852 83.563 274.187 83.563 274.187L122.368 270.496L118.702 234.244" stroke="#263238" stroke-linecap="round" stroke-linejoin="round"/>
<path d="M178.287 191.774C178.287 191.774 187.906 197.26 188.854 210.911C189.802 224.562 188.854 228.026 188.854 228.026" stroke="#263238" stroke-width="2" stroke-linecap="round" stroke-linejoin="round"/>
<path d="M193.202 245.507C193.202 245.507 192.343 261.648 190.586 266.312C188.829 270.976 181.877 276.5 176.366 277.385" stroke="#263238" stroke-linecap="round" stroke-linejoin="round"/>
<path d="M180.752 243.762C180.752 243.762 179.981 262.381 179.905 265.845C179.829 269.308 183.318 275.337 188.323 281.114" stroke="#263238" stroke-linecap="round" stroke-linejoin="round"/>
<path d="M189.759 283.142L189.906 283.022C190.595 282.464 190.7 281.453 190.142 280.764L189.433 279.89C188.875 279.202 187.864 279.096 187.175 279.655L187.028 279.774C186.339 280.333 186.234 281.343 186.792 282.032L187.501 282.906C188.059 283.594 189.07 283.7 189.759 283.142Z" fill="#263238"/>
<path d="M174.387 277.975L174.422 278.161C174.587 279.032 175.427 279.605 176.298 279.439L177.403 279.23C178.275 279.065 178.847 278.225 178.682 277.354L178.646 277.168C178.481 276.297 177.641 275.724 176.77 275.889L175.665 276.099C174.794 276.264 174.222 277.104 174.387 277.975Z" fill="#263238"/>
<path d="M193.392 246.733L193.025 233.17C192.991 231.755 192.431 230.404 191.454 229.381C190.477 228.357 189.153 227.734 187.742 227.634C186.243 227.522 184.76 228.009 183.618 228.987C182.477 229.965 181.769 231.355 181.649 232.854L180.512 246.606" stroke="#263238" stroke-width="2" stroke-linecap="round" stroke-linejoin="round"/>
<path d="M224.878 277.852L216.144 276.02L185.391 270.9L142.263 262.684L132.037 258.172C132.037 258.172 122.368 245.532 121.533 244.268C120.699 243.004 109.766 247.415 110.157 249.096C110.549 250.778 111.839 267.576 112.685 268.638C113.532 269.7 122.974 269.687 122.974 269.687C122.974 269.687 168.023 291.428 169.894 292.224C195.895 303.183 208.434 303.082 212.87 303.802C217.307 304.523 220.201 302.728 222.755 299.796C225.308 296.863 224.878 277.852 224.878 277.852Z" fill="#999999" stroke="#263238" stroke-linecap="round" stroke-linejoin="round"/>
<path d="M120.219 244.091C120.219 244.091 114.973 244.306 107.2 249.552C104.305 251.511 102.788 252.914 102.788 253.761C102.954 254.768 103.238 255.752 103.635 256.693C108.675 254.266 113.953 252.368 119.385 251.03" fill="#999999"/>
<path d="M120.219 244.091C120.219 244.091 114.973 244.306 107.2 249.552C104.305 251.511 102.788 252.914 102.788 253.761C102.954 254.768 103.238 255.752 103.635 256.693C108.675 254.266 113.953 252.368 119.385 251.03" stroke="#263238" stroke-linecap="round" stroke-linejoin="round"/>
<path d="M122.317 257.54C122.317 257.54 108.047 261.104 105.734 261.534C103.421 261.964 103.003 259.638 103.003 258.804C103.003 257.97 103.635 256.693 106.151 255.442C108.666 254.19 121.319 250.816 121.319 250.816" fill="#999999"/>
<path d="M122.317 257.54C122.317 257.54 108.047 261.104 105.734 261.534C103.421 261.964 103.003 259.638 103.003 258.804C103.003 257.97 103.635 256.693 106.151 255.442C108.666 254.19 121.319 250.816 121.319 250.816" stroke="#263238" stroke-linecap="round" stroke-linejoin="round"/>
<path d="M123.796 264.05C123.796 264.05 107.2 265.731 105.936 264.682C105.549 264.261 105.256 263.762 105.075 263.22C104.894 262.678 104.83 262.103 104.887 261.534L119.802 258.374" fill="#999999"/>
<path d="M123.796 264.05C123.796 264.05 107.2 265.731 105.936 264.682C105.549 264.261 105.256 263.762 105.075 263.22C104.894 262.678 104.83 262.103 104.887 261.534L119.802 258.374" stroke="#263238" stroke-linecap="round" stroke-linejoin="round"/>
<path d="M119.17 264.884L106.365 265.516C106.365 265.516 106.985 267.412 107.629 267.614C110.663 268.363 113.754 268.858 116.869 269.093C118.912 269.16 120.948 269.371 122.962 269.725" fill="#999999"/>
<path d="M119.17 264.884L106.365 265.516C106.365 265.516 106.985 267.412 107.629 267.614C110.663 268.363 113.754 268.858 116.869 269.093C118.912 269.16 120.948 269.371 122.962 269.725" stroke="#263238" stroke-linecap="round" stroke-linejoin="round"/>
<path d="M91.6147 273.454C91.6147 273.454 97.4671 298.734 98.9333 300.554C100.4 302.374 112.483 300.554 124.567 296.888C136.651 293.223 187.906 271.267 187.906 271.267L195.225 272.721C195.225 272.721 192.292 263.569 187.173 263.203C182.054 262.836 122.368 270.496 122.368 270.496L91.6147 273.454Z" fill="#999999" stroke="#263238" stroke-linecap="round" stroke-linejoin="round"/>
<path d="M142.832 172.776C142.832 172.776 142.832 173.32 142.832 174.242C142.946 179.058 143.413 194.353 144.64 198.044C146.106 202.43 165.875 239.414 167.392 236.482C168.908 233.549 178.009 193.645 178.009 193.645V177.908C178.009 177.908 173.244 181.928 164.459 181.928C155.674 181.928 142.832 172.776 142.832 172.776Z" fill="#999999" stroke="#263238" stroke-linecap="round" stroke-linejoin="round"/>
<path d="M172.157 194.466C174.207 193.215 176.167 191.821 178.022 190.295V177.908C178.022 177.908 173.257 181.928 164.472 181.928C155.687 181.928 142.832 172.776 142.832 172.776C142.832 172.776 142.832 173.32 142.832 174.242C142.832 175.936 142.958 178.932 143.11 182.269C143.457 182.824 143.846 183.353 144.273 183.849C146.801 186.769 158.91 194.1 161.843 194.833C164.775 195.566 168.858 196.287 172.157 194.466Z" fill="#263238" stroke="#263238" stroke-linecap="round" stroke-linejoin="round"/>
<path d="M186.806 151.541C186.806 151.541 192.659 148.242 192.659 154.473C192.659 160.705 187.173 168.024 187.173 168.024L186.806 151.541Z" fill="#999999" stroke="#263238" stroke-linecap="round" stroke-linejoin="round"/>
<path d="M134.452 151.908C134.452 151.908 126.387 149.708 126.387 157.039C126.387 164.371 133.718 169.111 133.718 169.111H138.774C138.774 169.111 141.707 176.442 144.273 179.362C146.839 182.281 158.91 189.613 161.842 190.346C164.775 191.079 168.794 191.812 172.093 189.979C176.238 187.395 180.058 184.323 183.469 180.828C184.936 179.008 187.502 166.557 187.502 166.557C187.502 166.557 188.235 144.222 186.768 136.537C185.302 128.852 175.784 116.768 162.601 115.302C149.417 113.836 136.967 124.453 135.147 132.872C133.327 141.29 134.452 151.908 134.452 151.908Z" fill="#999999" stroke="#263238" stroke-linecap="round" stroke-linejoin="round"/>
<path d="M158.24 157.772C158.24 157.772 155.712 162.892 160.073 164.358C164.434 165.824 169.957 165.458 171.057 163.258C172.157 161.059 170.324 158.506 170.324 158.506" stroke="#263238" stroke-linecap="round" stroke-linejoin="round"/>
<path d="M153.854 166.924C153.854 166.924 163.005 174.609 175.456 167.29" stroke="#263238" stroke-linecap="round" stroke-linejoin="round"/>
<path d="M158.973 173.876C158.973 173.876 166.671 178.275 171.79 173.143" stroke="#263238" stroke-linecap="round" stroke-linejoin="round"/>
<path d="M154.587 153.374C155.599 153.374 156.42 152.061 156.42 150.441C156.42 148.822 155.599 147.509 154.587 147.509C153.575 147.509 152.754 148.822 152.754 150.441C152.754 152.061 153.575 153.374 154.587 153.374Z" fill="#263238"/>
<path d="M174.356 150.075C174.356 151.693 173.534 153.007 172.523 153.007C171.512 153.007 170.69 151.743 170.69 150.075C170.69 148.406 171.512 147.155 172.523 147.155C173.534 147.155 174.356 148.457 174.356 150.075Z" fill="#263238"/>
<path d="M149.455 146.422C149.455 146.422 151.288 143.489 158.303 144.589" stroke="#263238" stroke-linecap="round" stroke-linejoin="round"/>
<path d="M169.591 144.956C169.591 144.956 172.89 139.824 178.022 144.956" stroke="#263238" stroke-linecap="round" stroke-linejoin="round"/>
<path d="M186.806 136.512C186.331 134.338 185.507 132.255 184.367 130.344C183.94 132.37 183.792 134.445 183.924 136.512C184.455 139.192 186.339 142.933 186.339 144.804C186.339 146.675 186.061 154.17 187.4 153.108C187.533 152.968 187.64 152.805 187.716 152.628C187.8 147.241 187.496 141.855 186.806 136.512Z" fill="#263238" stroke="#263238" stroke-linecap="round" stroke-linejoin="round"/>
<path d="M168.403 121.344C170.753 121.219 173.093 120.937 175.405 120.497C171.671 117.701 167.269 115.932 162.639 115.365C149.455 113.899 137.005 124.517 135.185 132.935C133.365 141.353 134.452 151.971 134.452 151.971C134.452 151.971 137.359 153.993 138.433 151.857C139.508 149.721 138.433 146.232 139.508 142.491C140.582 138.749 142.175 136.866 142.44 133.921C142.706 130.976 140.835 126.703 141.909 124.289C142.984 121.875 149.67 117.337 153.955 118.942C158.565 120.689 163.476 121.505 168.403 121.344Z" fill="#263238" stroke="#263238" stroke-linecap="round" stroke-linejoin="round"/>
</svg>
